HIERARCHY
ROOT Hips
{
	OFFSET -3.958830 18.904000 13.208200
	CHANNELS 6 Xposition Yposition Zposition Zrotation Yrotation Xrotation 
	JOINT LHipJoint
	{
		OFFSET 0.000000 0.000000 0.000000
		CHANNELS 3 Zrotation Yrotation Xrotation
		JOINT LeftUpLeg
		{
			OFFSET 1.800000 -1.400000 0.085000
			CHANNELS 3 Zrotation Yrotation Xrotation
			JOINT LeftLeg
			{
				OFFSET 2.215000 -6.000000 0.000000
				CHANNELS 3 Zrotation Yrotation Xrotation
				JOINT LeftFoot
				{
					OFFSET 2.500000 -6.900000 0.000000
					CHANNELS 3 Zrotation Yrotation Xrotation
					JOINT LeftToeBase
					{
						OFFSET 0.200000 -0.500000 1.950000
						CHANNELS 3 Zrotation Yrotation Xrotation
						End Site
						{
							OFFSET 0.000000 0.000000 0.000000
						}
					}
				}
			}
		}
	}
	JOINT RHipJoint
	{
		OFFSET 0.000000 0.000000 0.000000
		CHANNELS 3 Zrotation Yrotation Xrotation
		JOINT RightUpLeg
		{
			OFFSET -1.800000 -1.400000 0.085000
			CHANNELS 3 Zrotation Yrotation Xrotation
			JOINT RightLeg
			{
				OFFSET -2.215000 -6.000000 0.000000
				CHANNELS 3 Zrotation Yrotation Xrotation
				JOINT RightFoot
				{
					OFFSET -2.500000 -6.900000 0.000000
					CHANNELS 3 Zrotation Yrotation Xrotation
					JOINT RightToeBase
					{
						OFFSET -0.200000 -0.500000 1.950000
						CHANNELS 3 Zrotation Yrotation Xrotation
						End Site
						{
							OFFSET 0.000000 0.000000 0.000000
						}
					}
				}
			}
		}
	}
	JOINT LowerBack
	{
		OFFSET 0.000000 0.000000 0.000000
		CHANNELS 3 Zrotation Yrotation Xrotation
		JOINT Spine
		{
			OFFSET -0.087000 1.940000 -0.288900
			CHANNELS 3 Zrotation Yrotation Xrotation
			JOINT Spine1
			{
				OFFSET 0.000000 1.950000 0.060000
				CHANNELS 3 Zrotation Yrotation Xrotation
				JOINT Neck
				{
					OFFSET 0.000000 0.000000 0.000000
					CHANNELS 3 Zrotation Yrotation Xrotation
					JOINT Neck1
					{
						OFFSET 0.000000 1.600000 0.340000
						CHANNELS 3 Zrotation Yrotation Xrotation
						JOINT Head
						{
							OFFSET 0.000000 1.667000 -0.240000
							CHANNELS 3 Zrotation Yrotation Xrotation
							End Site
							{
								OFFSET 0.000000 0.000000 0.000000
							}
						}
					}
				}
				JOINT LeftShoulder
				{
					OFFSET 0.000000 0.000000 0.000000
					CHANNELS 3 Zrotation Yrotation Xrotation
					JOINT LeftArm
					{
						OFFSET 2.700000 1.550000 -0.730000
						CHANNELS 3 Zrotation Yrotation Xrotation
						JOINT LeftForeArm
						{
							OFFSET 5.450000 0.000000 0.000000
							CHANNELS 3 Zrotation Yrotation Xrotation
							JOINT LeftHand
							{
								OFFSET 3.450000 0.000000 0.000000
								CHANNELS 3 Zrotation Yrotation Xrotation
								JOINT LeftHandIndex1
								{
									OFFSET 0.750000 0.000000 0.000000
									CHANNELS 3 Zrotation Yrotation Xrotation
									End Site
									{
										OFFSET 0.000000 0.000000 0.000000
									}
								}
							}
						}
					}
				}
				JOINT RightShoulder
				{
					OFFSET 0.000000 0.000000 0.000000
					CHANNELS 3 Zrotation Yrotation Xrotation
					JOINT RightArm
					{
						OFFSET -2.700000 1.550000 -0.730000
						CHANNELS 3 Zrotation Yrotation Xrotation
						JOINT RightForeArm
						{
							OFFSET -5.450000 0.000000 0.000000
							CHANNELS 3 Zrotation Yrotation Xrotation
							JOINT RightHand
							{
								OFFSET -3.450000 0.000000 0.000000
								CHANNELS 3 Zrotation Yrotation Xrotation
								JOINT RightHandIndex1
								{
									OFFSET -0.750000 0.000000 0.000000
									CHANNELS 3 Zrotation Yrotation Xrotation
									End Site
									{
										OFFSET 0.000000 0.000000 0.000000
									}
								}
							}
						}
					}
				}
			}
		}
	}
}
MOTION
Frames: 13
Frame Time: 0.016667
0.480350 16.811970 -0.621320 -5.347840 -7.242953 3.844032 -15.145413 13.515989 3.353668 0.272908 -0.305275 -4.569718 -7.112848 4.482152 4.342217 -0.489604 3.809868 3.397325 0.673420 0.196720 0.527000 18.239602 -10.753074 3.010837 0.546242 -0.105392 -6.379363 4.870782 -4.472952 8.084385 -0.500603 -3.193841 3.578692 0.086140 -0.075780 0.290190 -3.435504 -2.243319 -7.979261 11.306143 -0.071424 7.911973 -2.814358 0.740400 1.157162 4.630786 -3.632682 -12.021235 -10.173042 4.526473 43.942755 -1.997370 2.894150 -17.869660 -31.349654 -11.559897 4.361894 -53.417793 -2.818013 -3.997580 -25.164767 -25.674253 2.468629 -3.290331 2.933919 0.991960 -0.098840 0.265420 0.301080 22.472421 15.788891 9.960280 52.858465 -1.661151 -9.945874 39.208081 37.165418 8.074457 1.983585 -1.511085 -0.190800 0.095880 -0.260250 -0.363800 
0.484430 16.814890 -0.624400 -5.375743 -7.548914 3.734319 -15.152294 13.546169 3.358603 0.239313 -0.293270 -4.562362 -7.045110 4.503326 4.549153 -0.479337 3.792219 3.389541 0.683580 0.213460 0.534510 18.224628 -10.752217 3.010672 0.300152 -0.093481 -6.425366 5.267149 -4.561519 8.212466 -0.504926 -3.206611 3.569965 0.087210 -0.096510 0.292680 -3.397427 -2.292902 -7.999887 11.190833 -0.114311 8.107112 -2.725287 0.712761 1.147004 4.721126 -3.456773 -12.128061 -9.939727 4.440823 44.436902 -2.053390 2.929770 -17.864200 -31.134645 -11.646729 4.385490 -53.398914 -2.887189 -3.978136 -25.614776 -25.666498 2.568405 -3.281683 2.953511 0.986490 -0.106760 0.274200 0.295400 22.108762 15.754991 10.029905 52.723149 -1.950757 -10.021130 40.333306 37.303449 8.383666 1.991866 -1.526461 -0.173150 0.078230 -0.266540 -0.363800 
0.495330 16.824930 -0.635450 -5.667299 -8.436884 3.512443 -15.151860 13.621337 3.390372 0.424831 -0.275826 -4.479890 -7.169720 4.561590 4.667347 -0.472632 3.812732 3.379178 0.699300 0.229060 0.555720 18.207260 -10.742786 3.015948 0.419874 -0.050903 -6.579283 5.148740 -4.576564 8.715411 -0.514690 -3.167681 3.576652 0.091020 -0.118170 0.290290 -3.353132 -2.429046 -8.068048 11.482332 -0.308348 8.803789 -2.717294 0.664197 0.904462 4.922851 -3.410916 -12.382658 -10.114564 4.426533 45.532469 -2.177250 2.851190 -18.408150 -31.251398 -11.828969 4.430924 -52.975694 -2.673552 -4.106022 -26.405751 -25.883609 2.740842 -3.255262 2.950367 1.006460 -0.126930 0.298170 0.297580 21.839000 15.976530 10.192065 51.654808 -2.359099 -9.937752 42.569338 37.166056 8.967347 2.003991 -1.531363 -0.169880 0.083070 -0.280150 -0.367900 
0.506250 16.832650 -0.649220 -5.761268 -9.601856 3.336623 -15.152677 13.656471 3.431799 0.329863 -0.238368 -4.328328 -7.361739 4.595763 4.612497 -0.440947 3.806888 3.373978 0.728190 0.269440 0.573410 18.191591 -10.759653 3.003004 0.256030 0.007669 -6.921178 5.074196 -4.592944 9.259914 -0.520363 -3.139487 3.580368 0.100720 -0.139580 0.297100 -3.304480 -2.466339 -8.119703 11.356355 -0.351442 9.343521 -2.667832 0.709817 0.744742 5.008140 -3.052877 -12.509132 -9.593705 4.118939 46.625671 -1.830560 2.576300 -18.348200 -31.402496 -12.055020 4.460579 -52.227397 -2.641950 -4.093039 -27.076064 -25.887521 2.922971 -3.231240 2.976224 0.999500 -0.139340 0.320910 0.307830 21.833385 16.013650 10.243427 50.318881 -2.809584 -9.759831 44.514312 36.681880 9.335204 2.019955 -1.557853 -0.142340 0.069320 -0.306190 -0.357100 
0.514080 16.834250 -0.662110 -5.948373 -10.712156 3.294887 -15.158590 13.677393 3.464859 0.500184 -0.219827 -4.252388 -7.777472 4.664284 4.455560 -0.414942 3.836403 3.367249 0.741600 0.284580 0.588930 18.175500 -10.777497 2.981607 0.354802 0.117177 -7.494634 4.831414 -4.599346 10.189407 -0.507541 -3.109556 3.588081 0.105210 -0.146960 0.296460 -3.247590 -2.472425 -8.149847 11.183704 -0.375479 9.758622 -2.548751 0.735202 0.748865 5.141494 -2.540766 -12.569691 -8.625482 3.301483 46.830556 -1.886480 2.088820 -17.814950 -31.228609 -12.275633 4.437069 -51.815780 -2.842225 -3.961132 -27.643162 -25.577378 3.038221 -3.226884 2.990674 0.983860 -0.138590 0.322600 0.313260 21.396581 15.924765 10.371437 49.202150 -3.480635 -9.809562 47.592283 37.398195 10.352607 2.030875 -1.601141 -0.130400 0.061150 -0.324820 -0.352270 
0.520380 16.837070 -0.674930 -6.143215 -11.699102 3.293543 -15.157393 13.714992 3.494231 0.535720 -0.210272 -4.219785 -7.840610 4.676622 4.350992 -0.406989 3.862513 3.370968 0.731780 0.259590 0.599620 18.164855 -10.789429 2.972769 0.613716 0.255600 -8.150916 4.455726 -4.574281 11.116573 -0.482251 -3.066508 3.604680 0.094550 -0.136620 0.295340 -3.209043 -2.512367 -8.189588 11.090097 -0.577176 10.094185 -2.584031 0.589615 0.713738 5.223204 -1.961048 -12.825682 -7.625358 2.493177 47.295289 -2.015400 1.554450 -16.652020 -31.190020 -12.972320 4.654792 -51.075462 -2.730052 -3.958421 -27.983884 -25.056981 3.006451 -3.237112 2.984332 0.972680 -0.126150 0.310670 0.310100 21.173191 16.174587 10.621336 48.351743 -4.319893 -10.064778 49.379520 37.599265 10.773088 2.033979 -1.615275 -0.135640 0.064200 -0.325100 -0.356000 
0.527230 16.841540 -0.686800 -6.246622 -12.814507 3.238912 -15.168994 13.781557 3.530987 0.490539 -0.174708 -4.162708 -7.845221 4.693858 4.320520 -0.409315 3.877740 3.380079 0.720540 0.246250 0.596910 18.137272 -10.794685 2.952406 0.651136 0.406117 -8.919840 4.241801 -4.605052 12.277409 -0.459195 -3.031945 3.622207 0.093150 -0.126410 0.276680 -3.122382 -2.619098 -8.234528 10.729431 -0.793363 10.725900 -2.461189 0.459931 0.451912 5.256260 -1.491591 -13.003209 -6.871236 1.714650 47.416373 -1.823280 0.921060 -16.297450 -31.016352 -13.340285 4.650874 -50.311061 -2.857519 -3.746876 -28.301246 -24.214227 2.963554 -3.236079 2.961331 0.974360 -0.123770 0.301140 0.312600 20.950912 16.156651 10.891969 47.333749 -5.507918 -10.395355 52.038339 38.652586 11.819283 2.033140 -1.628000 -0.153970 0.083450 -0.327370 -0.357340 
0.534530 16.843720 -0.694450 -6.232688 -13.983680 3.218119 -15.182401 13.818572 3.564304 0.280322 -0.125964 -4.007547 -7.813237 4.676395 4.138198 -0.409234 3.883849 3.387680 0.725930 0.249350 0.606000 18.115161 -10.807168 2.909902 0.392049 0.554911 -9.793732 4.268537 -4.714412 13.591040 -0.443128 -3.033577 3.618027 0.101630 -0.123360 0.267820 -3.043692 -2.677763 -8.241062 10.176373 -1.034762 11.102798 -2.243070 0.212618 0.293727 5.197538 -0.974678 -12.941237 -5.916479 0.943270 47.123141 -1.574590 0.416610 -16.031470 -30.482072 -13.494295 4.547568 -49.542572 -3.297286 -3.304637 -28.814779 -22.867605 2.878661 -3.241313 2.956627 0.969670 -0.120970 0.294870 0.317320 20.550551 15.811551 10.848523 46.272143 -6.144765 -10.352891 53.225480 38.122928 11.893388 2.035519 -1.642448 -0.161950 0.089550 -0.338410 -0.358520 
0.540040 16.850450 -0.705830 -6.493789 -15.109178 3.159000 -15.193587 13.872198 3.594049 0.471085 -0.101899 -3.882094 -7.999002 4.709133 4.005167 -0.383861 3.884637 3.386829 0.759580 0.289260 0.638670 18.092786 -10.791976 2.901831 0.532465 0.706329 -10.547407 4.304548 -4.796450 14.747153 -0.450505 -3.016595 3.613641 0.117210 -0.153600 0.259380 -2.965251 -2.790275 -8.283362 9.855945 -1.442154 11.863358 -2.023607 -0.124327 -0.047524 5.183142 -0.438491 -12.962248 -4.960539 0.146578 47.186749 -1.053230 -0.085570 -16.644670 -30.015257 -13.571662 4.503706 -48.739274 -3.499611 -3.127265 -29.225571 -22.252337 2.906510 -3.208404 2.970127 0.971870 -0.144870 0.316670 0.326890 20.114212 15.428862 10.811040 45.041504 -6.790152 -10.295037 54.751269 38.164122 12.348277 2.053909 -1.667347 -0.147930 0.082210 -0.375940 -0.355810 
0.544370 16.856120 -0.718390 -6.748657 -16.427604 3.040024 -15.215601 13.943244 3.638399 0.664885 -0.061284 -3.685636 -8.273734 4.745711 3.709755 -0.352712 3.882977 3.384135 0.792030 0.339050 0.660010 18.061406 -10.750480 2.893264 0.725933 0.843276 -11.245221 4.096467 -4.780950 15.728262 -0.452315 -2.965148 3.627806 0.139210 -0.187050 0.227770 -2.854078 -2.983648 -8.339298 9.369577 -1.900763 12.781950 -1.469116 -0.506801 -0.418035 5.059708 -0.421243 -13.082376 -5.101854 -0.094943 47.549523 0.245380 -0.705300 -17.601060 -29.449928 -13.561222 4.493320 -48.568179 -3.625805 -3.164437 -28.825681 -22.074027 2.827490 -3.160581 2.966851 0.977240 -0.183030 0.336590 0.336200 19.887670 15.371529 10.839988 43.161563 -7.335983 -10.083981 56.482591 38.232815 12.959209 2.075618 -1.682105 -0.139670 0.089430 -0.412930 -0.349620 
0.546480 16.866950 -0.724520 -6.932419 -17.869493 2.810038 -15.230567 14.015246 3.691322 0.762580 0.008646 -3.268906 -8.519854 4.783805 3.406811 -0.322544 3.898821 3.370007 0.826320 0.384150 0.687240 18.036540 -10.710975 2.887808 0.939742 0.973806 -11.880981 3.761985 -4.751630 16.716210 -0.461778 -2.924582 3.631032 0.156080 -0.228430 0.211010 -2.759056 -3.176007 -8.404452 8.964664 -2.369858 13.748726 -1.218800 -0.876503 -0.892432 5.017415 -0.298558 -13.262095 -5.112251 -0.282029 48.444073 0.981440 -1.065180 -18.436540 -29.291525 -13.653977 4.540614 -47.476144 -3.404839 -3.244512 -28.603055 -21.939563 2.803506 -3.107976 2.976259 0.990270 -0.219910 0.363720 0.341480 19.878465 15.328358 10.878406 41.346366 -7.942250 -9.853878 57.939866 38.165990 13.449624 2.094387 -1.697687 -0.126040 0.082820 -0.446520 -0.348900 
0.546600 16.874530 -0.730270 -7.177706 -19.301359 2.721860 -15.249259 14.050463 3.731134 0.862875 0.079954 -2.809652 -8.672875 4.752183 2.794044 -0.284285 3.901491 3.358509 0.869870 0.444760 0.704270 18.023559 -10.651903 2.882847 1.424842 1.111976 -12.584858 3.056739 -4.559115 17.330014 -0.460522 -2.858695 3.646158 0.181930 -0.261040 0.205680 -2.684619 -3.336382 -8.433951 8.547078 -2.859929 14.326765 -0.855798 -1.375436 -0.945011 4.916316 -0.281951 -13.301612 -5.202993 -0.173149 48.751592 1.683290 -1.169180 -18.563300 -28.742533 -13.731264 4.571246 -46.628638 -3.558364 -3.205723 -28.208595 -21.657802 2.729103 -3.068686 3.013450 0.980770 -0.241530 0.382290 0.358660 19.602836 15.246610 10.796318 39.551623 -8.135897 -9.501103 59.032271 37.882799 13.737363 2.108917 -1.738448 -0.099810 0.060260 -0.485850 -0.337760 
0.544370 16.885180 -0.738660 -7.557207 -20.642039 2.644573 -15.264933 14.069399 3.750887 1.219705 0.128585 -2.335946 -8.894670 4.750665 2.268971 -0.249472 3.951046 3.336241 0.899380 0.484960 0.719060 18.018744 -10.582434 2.886849 2.001288 1.305654 -13.349152 2.517624 -4.421142 17.997722 -0.463722 -2.815242 3.645954 0.198320 -0.275110 0.218730 -2.633668 -3.473574 -8.444826 8.251157 -3.390664 14.833487 -0.596387 -1.939531 -0.759767 4.827516 -0.162842 -13.201768 -4.983208 -0.091021 48.686394 1.869210 -1.000810 -18.714780 -28.169613 -13.867736 4.612286 -45.474382 -3.905540 -3.087235 -27.810582 -21.540238 2.696221 -3.058839 3.043651 0.968910 -0.246820 0.398330 0.369700 19.237960 15.097527 10.544476 38.004068 -7.698397 -9.105454 59.067041 37.753547 13.840603 2.118193 -1.762899 -0.075800 0.043360 -0.507320 -0.327310 
